<svg xmlns="http://www.w3.org/2000/svg" width="22" height="17" viewBox="0 0 22 17" fill="none">
<path fill-rule="evenodd" clip-rule="evenodd" d="M15.67 9.70068C17.04 10.6888 18 12.0276 18 13.8126V17.0001H22V13.8126C22 11.4963 18.43 10.1257 15.67 9.70068Z" fill="black"/>
<path d="M8 8.5C10.2091 8.5 12 6.59721 12 4.25C12 1.90279 10.2091 0 8 0C5.79086 0 4 1.90279 4 4.25C4 6.59721 5.79086 8.5 8 8.5Z" fill="black"/>
<path fill-rule="evenodd" clip-rule="evenodd" d="M14 8.5C16.21 8.5 18 6.59813 18 4.25C18 1.90187 16.21 0 14 0C13.53 0 13.09 0.10625 12.67 0.255C13.5 1.34937 14 2.74125 14 4.25C14 5.75875 13.5 7.15063 12.67 8.245C13.09 8.39375 13.53 8.5 14 8.5Z" fill="black"/>
<path fill-rule="evenodd" clip-rule="evenodd" d="M8 9.5625C5.33 9.5625 0 10.9862 0 13.8125V17H16V13.8125C16 10.9862 10.67 9.5625 8 9.5625Z" fill="black"/>
</svg>