<svg xmlns="http://www.w3.org/2000/svg" width="58" height="38" viewBox="0 0 58 38" fill="none">
  <g filter="url(#filter0_d_354_704)">
    <rect x="4" width="50" height="30" rx="5" fill="#2B1A46"/>
  </g>
  <path d="M16 2H41V27H16V2Z" fill="#2B1A46"/>
  <path d="M20.1667 10.3333V8.24996C20.1667 7.69743 20.3862 7.16752 20.7769 6.77682C21.1676 6.38612 21.6975 6.16663 22.2501 6.16663H24.3334" fill="#2B1A46"/>
  <path d="M20.1667 10.3333V8.24996C20.1667 7.69743 20.3862 7.16752 20.7769 6.77682C21.1676 6.38612 21.6975 6.16663 22.2501 6.16663H24.3334" stroke="white" stroke-width="2.5" stroke-linecap="round" stroke-linejoin="round"/>
  <path d="M20.1667 18.6666V20.75C20.1667 21.3025 20.3862 21.8324 20.7769 22.2231C21.1676 22.6138 21.6975 22.8333 22.2501 22.8333H24.3334" fill="#2B1A46"/>
  <path d="M20.1667 18.6666V20.75C20.1667 21.3025 20.3862 21.8324 20.7769 22.2231C21.1676 22.6138 21.6975 22.8333 22.2501 22.8333H24.3334" stroke="white" stroke-width="2.5" stroke-linecap="round" stroke-linejoin="round"/>
  <path d="M32.6667 6.16663H34.7501C35.3026 6.16663 35.8325 6.38612 36.2232 6.77682C36.6139 7.16752 36.8334 7.69743 36.8334 8.24996V10.3333" fill="#2B1A46"/>
  <path d="M32.6667 6.16663H34.7501C35.3026 6.16663 35.8325 6.38612 36.2232 6.77682C36.6139 7.16752 36.8334 7.69743 36.8334 8.24996V10.3333" stroke="white" stroke-width="2.5" stroke-linecap="round" stroke-linejoin="round"/>
  <path d="M32.6667 22.8333H34.7501C35.3026 22.8333 35.8325 22.6138 36.2232 22.2231C36.6139 21.8324 36.8334 21.3025 36.8334 20.75V18.6666" fill="#2B1A46"/>
  <path d="M32.6667 22.8333H34.7501C35.3026 22.8333 35.8325 22.6138 36.2232 22.2231C36.6139 21.8324 36.8334 21.3025 36.8334 20.75V18.6666" stroke="white" stroke-width="2.5" stroke-linecap="round" stroke-linejoin="round"/>
  <path d="M23.2917 14.5001C26.7636 9.63864 30.2365 9.63864 33.7084 14.5001H23.2917Z" fill="#2B1A46"/>
  <path d="M23.2917 14.5001C26.7636 9.63864 30.2365 9.63864 33.7084 14.5001" stroke="white" stroke-width="2.5" stroke-linecap="round" stroke-linejoin="round"/>
  <path d="M23.2917 14.5C26.7636 19.3615 30.2365 19.3615 33.7084 14.5H23.2917Z" fill="#2B1A46"/>
  <path d="M23.2917 14.5C26.7636 19.3615 30.2365 19.3615 33.7084 14.5" stroke="white" stroke-width="2.5" stroke-linecap="round" stroke-linejoin="round"/>
  <path d="M28.5006 14.5H28.4897H28.5006Z" fill="#2B1A46"/>
  <path d="M28.5006 14.5H28.4897" stroke="white" stroke-width="2.5" stroke-linecap="round" stroke-linejoin="round"/>
  <defs>
    <filter id="filter0_d_354_704" x="0" y="0" width="58" height="38" filterUnits="userSpaceOnUse" color-interpolation-filters="sRGB">
      <feFlood flood-opacity="0" result="BackgroundImageFix"/>
      <feColorMatrix in="SourceAlpha" type="matrix" values="0 0 0 0 0 0 0 0 0 0 0 0 0 0 0 0 0 0 127 0" result="hardAlpha"/>
      <feOffset dy="4"/>
      <feGaussianBlur stdDeviation="2"/>
      <feComposite in2="hardAlpha" operator="out"/>
      <feColorMatrix type="matrix" values="0 0 0 0 0 0 0 0 0 0 0 0 0 0 0 0 0 0 0.25 0"/>
      <feBlend mode="normal" in2="BackgroundImageFix" result="effect1_dropShadow_354_704"/>
      <feBlend mode="normal" in="SourceGraphic" in2="effect1_dropShadow_354_704" result="shape"/>
    </filter>
  </defs>
</svg>